<?xml version="1.0" standalone="no"?>
<!DOCTYPE svg PUBLIC "-//W3C//DTD SVG 20010904//EN"
 "http://www.w3.org/TR/2001/REC-SVG-20010904/DTD/svg10.dtd">
<svg version="1.0" xmlns="http://www.w3.org/2000/svg"
 width="512.000000pt" height="512.000000pt" viewBox="0 0 512.000000 512.000000"
 preserveAspectRatio="xMidYMid meet">

<g transform="translate(0.000000,512.000000) scale(0.100000,-0.100000)"
fill="#000000" stroke="none">
<path d="M2350 4016 c-603 -107 -1054 -551 -1177 -1161 -24 -123 -24 -394 0
-518 35 -174 109 -360 197 -496 l42 -64 -80 -274 c-61 -212 -75 -272 -63 -269
9 3 128 39 264 81 136 41 255 75 264 75 9 0 46 -17 82 -38 238 -137 516 -199
808 -180 507 32 963 340 1188 803 54 111 87 209 116 345 30 141 32 399 5 540
-58 297 -189 545 -400 755 -201 200 -415 319 -701 388 -104 25 -432 33 -545
13z m-210 -641 c22 -11 41 -39 74 -108 62 -130 126 -283 126 -301 0 -8 -29
-52 -63 -98 -94 -123 -94 -122 -61 -171 81 -124 245 -293 381 -394 76 -56 212
-133 236 -133 7 0 39 34 71 75 32 41 79 93 103 116 39 35 48 40 76 33 72 -15
317 -143 363 -189 19 -19 20 -27 13 -83 -17 -120 -96 -225 -216 -284 -52 -25
-74 -30 -130 -30 -494 6 -1154 505 -1302 986 -39 125 -24 333 32 442 63 124
202 188 297 139z"/>
<path d="M4050 3528 c0 -4 14 -30 30 -57 17 -27 50 -91 74 -142 228 -490 217
-1038 -30 -1519 -170 -332 -448 -601 -789 -765 -475 -228 -1020 -230 -1492 -5
l-101 48 -464 -145 c-255 -80 -465 -147 -468 -150 -2 -2 173 -181 390 -398
l395 -395 1485 0 1485 0 278 278 277 277 0 955 0 955 -535 535 c-294 294 -535
532 -535 528z"/>
</g>
</svg>
